# xmcd
#
# Track frame offsets: 
#        150
#        19003
#        37268
#        52008
#        70053
#        82168
#        96798
#        113740
#        130043
#        144788
#        160975
#        177668
#
# Disc length: 2579 seconds
#
# Revision: 1
# Processed by: cddbd v1.5PL3 Copyright (c) Steve Scherf et al.
# Submitted via: ExactAudioCopy v0.90b4
#
DISCID=a40a110c
DTITLE=Ronnie Milsap - 35 All-Time #1 Hits! (Country Collection) - Dis
DTITLE=c 2
DYEAR=2001
DGENRE=Country
TTITLE0=Why Don't You Spend The Night
TTITLE1=Inside
TTITLE2=Don't You Know How Much I Love You
TTITLE3=Show Her
TTITLE4=My Heart
TTITLE5=Cowboys And Clowns
TTITLE6=Smokey Mountain Rain
TTITLE7=Am I Loosing You
TTITLE8=(There's) No Getting Over Me
TTITLE9=I Wouldn't Have Missed It For The World
TTITLE10=Any Day Now
TTITLE11=He Got You
EXTD=
EXTT0=
EXTT1=
EXTT2=
EXTT3=
EXTT4=
EXTT5=
EXTT6=
EXTT7=
EXTT8=
EXTT9=
EXTT10=
EXTT11=
PLAYORDER=
